<svg xmlns="http://www.w3.org/2000/svg" xmlns:xlink="http://www.w3.org/1999/xlink" width="500" zoomAndPan="magnify" viewBox="0 0 375 374.999991" height="500" preserveAspectRatio="xMidYMid meet" version="1.0"><defs><g/></defs><path stroke-linecap="butt" transform="matrix(0.978005, 0, 0, 0.979394, 20.321376, 93.242367)" fill="none" stroke-linejoin="miter" d="M -0.00108722 1.000913 L 330.482732 1.000913 " stroke="#000000" stroke-width="2" stroke-opacity="1" stroke-miterlimit="4"/><path stroke-linecap="butt" transform="matrix(0, -0.981111, 0.979394, 0, 20.29556, 217.35756)" fill="none" stroke-linejoin="miter" d="M -0.00184981 0.998452 L 124.788891 0.998452 " stroke="#000000" stroke-width="2" stroke-opacity="1" stroke-miterlimit="4"/><path stroke-linecap="butt" transform="matrix(0, -0.983197, 0.979394, 0, 343.012132, 191.803756)" fill="none" stroke-linejoin="miter" d="M -0.000947211 1.000676 L 100.615505 1.000676 " stroke="#000000" stroke-width="2" stroke-opacity="1" stroke-miterlimit="4"/><g fill="#00bf63" fill-opacity="1"><g transform="translate(58.36578, 193.795944)"><g><path d="M 0.625 -51.3125 L 0.625 -64.140625 L 45.71875 -64.140625 L 45.71875 -51.3125 L 30.484375 -51.3125 L 30.484375 0 L 15.859375 0 L 15.859375 -51.3125 Z M 0.625 -51.3125 "/></g></g></g><g fill="#00bf63" fill-opacity="1"><g transform="translate(104.698483, 193.795944)"><g><path d="M 37.25 -64.140625 L 63.140625 0 L 47.421875 0 L 42.6875 -12.828125 L 18.265625 -12.828125 L 13.53125 0 L -2.171875 0 L 23.71875 -64.140625 Z M 37.703125 -25.65625 L 30.5625 -44.3125 L 30.40625 -44.3125 L 23.25 -25.65625 Z M 37.703125 -25.65625 "/></g></g></g><g fill="#00bf63" fill-opacity="1"><g transform="translate(165.646212, 193.795944)"><g><path d="M 19.28125 -64.140625 L 19.28125 -12.828125 L 41.359375 -12.828125 L 41.359375 0 L 4.671875 0 L 4.671875 -64.140625 Z M 19.28125 -64.140625 "/></g></g></g><g fill="#00bf63" fill-opacity="1"><g transform="translate(209.569, 193.795944)"><g><path d="M 41.359375 -64.140625 L 41.359375 -51.3125 L 19.28125 -51.3125 L 19.28125 -38.5625 L 40.4375 -38.5625 L 40.4375 -25.734375 L 19.28125 -25.734375 L 19.28125 -12.828125 L 41.359375 -12.828125 L 41.359375 0 L 4.671875 0 L 4.671875 -64.140625 Z M 41.359375 -64.140625 "/></g></g></g><g fill="#00bf63" fill-opacity="1"><g transform="translate(254.657883, 193.795944)"><g><path d="M 28.296875 -65.3125 C 31.773438 -65.3125 35.171875 -64.804688 38.484375 -63.796875 C 41.804688 -62.785156 44.269531 -61.785156 45.875 -60.796875 L 48.203125 -59.25 L 42.296875 -47.578125 C 41.828125 -47.890625 41.175781 -48.289062 40.34375 -48.78125 C 39.519531 -49.28125 37.96875 -49.941406 35.6875 -50.765625 C 33.40625 -51.597656 31.28125 -52.015625 29.3125 -52.015625 C 26.875 -52.015625 24.992188 -51.492188 23.671875 -50.453125 C 22.347656 -49.421875 21.6875 -48.023438 21.6875 -46.265625 C 21.6875 -45.378906 22 -44.5625 22.625 -43.8125 C 23.25 -43.0625 24.3125 -42.257812 25.8125 -41.40625 C 27.3125 -40.550781 28.628906 -39.863281 29.765625 -39.34375 C 30.910156 -38.820312 32.675781 -38.046875 35.0625 -37.015625 C 39.207031 -35.242188 42.742188 -32.84375 45.671875 -29.8125 C 48.609375 -26.78125 50.078125 -23.347656 50.078125 -19.515625 C 50.078125 -15.835938 49.414062 -12.625 48.09375 -9.875 C 46.769531 -7.125 44.953125 -4.972656 42.640625 -3.421875 C 40.335938 -1.867188 37.785156 -0.71875 34.984375 0.03125 C 32.179688 0.789062 29.148438 1.171875 25.890625 1.171875 C 23.085938 1.171875 20.335938 0.882812 17.640625 0.3125 C 14.953125 -0.257812 12.695312 -0.972656 10.875 -1.828125 C 9.0625 -2.679688 7.429688 -3.519531 5.984375 -4.34375 C 4.535156 -5.175781 3.472656 -5.878906 2.796875 -6.453125 L 1.78125 -7.3125 L 9.09375 -19.59375 C 9.71875 -19.070312 10.570312 -18.410156 11.65625 -17.609375 C 12.75 -16.804688 14.679688 -15.726562 17.453125 -14.375 C 20.222656 -13.03125 22.671875 -12.359375 24.796875 -12.359375 C 30.960938 -12.359375 34.046875 -14.457031 34.046875 -18.65625 C 34.046875 -19.539062 33.828125 -20.359375 33.390625 -21.109375 C 32.953125 -21.859375 32.175781 -22.609375 31.0625 -23.359375 C 29.945312 -24.109375 28.960938 -24.703125 28.109375 -25.140625 C 27.253906 -25.585938 25.851562 -26.265625 23.90625 -27.171875 C 21.96875 -28.078125 20.53125 -28.765625 19.59375 -29.234375 C 15.707031 -31.148438 12.703125 -33.546875 10.578125 -36.421875 C 8.453125 -39.296875 7.390625 -42.394531 7.390625 -45.71875 C 7.390625 -51.46875 9.515625 -56.171875 13.765625 -59.828125 C 18.015625 -63.484375 22.859375 -65.3125 28.296875 -65.3125 Z M 28.296875 -65.3125 "/></g></g></g><g fill="#00bf63" fill-opacity="1"><g transform="translate(47.57714, 272.147483)"><g/></g></g><g fill="#00bf63" fill-opacity="1"><g transform="translate(62.398429, 272.147483)"><g/></g></g><g fill="#00bf63" fill-opacity="1"><g transform="translate(77.219717, 272.147483)"><g/></g></g><g fill="#00bf63" fill-opacity="1"><g transform="translate(92.041005, 272.147483)"><g/></g></g><g fill="#00bf63" fill-opacity="1"><g transform="translate(106.876401, 272.147483)"><g><path d="M 22.5 -37.0625 L 22.5 -33.09375 L 9.265625 -33.09375 L 9.265625 -21.171875 L 21.96875 -21.171875 L 21.96875 -17.203125 L 9.265625 -17.203125 L 9.265625 0 L 5.03125 0 L 5.03125 -37.0625 Z M 22.5 -37.0625 "/></g></g></g><g fill="#00bf63" fill-opacity="1"><g transform="translate(132.019661, 272.147483)"><g><path d="M 9.53125 0 L 5.296875 0 L 5.296875 -37.0625 L 9.53125 -37.0625 Z M 9.53125 0 "/></g></g></g><g fill="#00bf63" fill-opacity="1"><g transform="translate(146.840949, 272.147483)"><g><path d="M 32.65625 -7.828125 L 32.65625 -37.0625 L 36.796875 -37.0625 L 36.796875 0 L 34.140625 0 L 9.15625 -29.21875 L 9.15625 0 L 5.03125 0 L 5.03125 -37.0625 L 7.671875 -37.0625 Z M 32.65625 -7.828125 "/></g></g></g><g fill="#00bf63" fill-opacity="1"><g transform="translate(188.658165, 272.147483)"><g><path d="M 34.40625 0 L 29.859375 0 L 25.890625 -10.0625 L 9.46875 -10.0625 L 5.5 0 L 1.0625 0 L 16.140625 -37.0625 L 19.328125 -37.0625 Z M 24.296875 -14.03125 L 17.6875 -30.75 L 11.0625 -14.03125 Z M 24.296875 -14.03125 "/></g></g></g><g fill="#00bf63" fill-opacity="1"><g transform="translate(224.123397, 272.147483)"><g><path d="M 32.65625 -7.828125 L 32.65625 -37.0625 L 36.796875 -37.0625 L 36.796875 0 L 34.140625 0 L 9.15625 -29.21875 L 9.15625 0 L 5.03125 0 L 5.03125 -37.0625 L 7.671875 -37.0625 Z M 32.65625 -7.828125 "/></g></g></g><g fill="#00bf63" fill-opacity="1"><g transform="translate(265.940613, 272.147483)"><g><path d="M 21.75 0.53125 C 18.332031 0.53125 15.175781 -0.3125 12.28125 -2 C 9.382812 -3.695312 7.097656 -6.007812 5.421875 -8.9375 C 3.742188 -11.875 2.90625 -15.070312 2.90625 -18.53125 C 2.90625 -21.988281 3.742188 -25.179688 5.421875 -28.109375 C 7.097656 -31.035156 9.382812 -33.34375 12.28125 -35.03125 C 15.175781 -36.726562 18.332031 -37.578125 21.75 -37.578125 C 25.675781 -37.578125 29.117188 -36.507812 32.078125 -34.375 C 35.046875 -32.25 37.269531 -29.347656 38.75 -25.671875 L 34.25 -25.671875 C 33.007812 -28.109375 31.304688 -30.039062 29.140625 -31.46875 C 26.972656 -32.894531 24.507812 -33.609375 21.75 -33.609375 C 19.144531 -33.609375 16.726562 -32.9375 14.5 -31.59375 C 12.28125 -30.257812 10.523438 -28.441406 9.234375 -26.140625 C 7.953125 -23.847656 7.3125 -21.3125 7.3125 -18.53125 C 7.3125 -15.738281 7.953125 -13.195312 9.234375 -10.90625 C 10.523438 -8.613281 12.28125 -6.796875 14.5 -5.453125 C 16.726562 -4.109375 19.144531 -3.4375 21.75 -3.4375 C 24.613281 -3.4375 27.140625 -4.148438 29.328125 -5.578125 C 31.515625 -7.015625 33.226562 -8.945312 34.46875 -11.375 L 38.96875 -11.375 C 37.476562 -7.707031 35.242188 -4.804688 32.265625 -2.671875 C 29.285156 -0.535156 25.78125 0.53125 21.75 0.53125 Z M 21.75 0.53125 "/></g></g></g><g fill="#00bf63" fill-opacity="1"><g transform="translate(307.016769, 272.147483)"><g><path d="M 9.265625 -17.203125 L 9.265625 -3.96875 L 25.140625 -3.96875 L 25.140625 0 L 5.03125 0 L 5.03125 -37.0625 L 24.609375 -37.0625 L 24.609375 -33.09375 L 9.265625 -33.09375 L 9.265625 -21.171875 L 24.09375 -21.171875 L 24.09375 -17.203125 Z M 9.265625 -17.203125 "/></g></g></g><g fill="#00bf63" fill-opacity="1"><g transform="translate(335.61087, 272.147483)"><g/></g></g><g fill="#00bf63" fill-opacity="1"><g transform="translate(350.432158, 272.147483)"><g/></g></g><path stroke-linecap="butt" transform="matrix(0.749702, 0, 0, 0.75, 20.298484, 216.381079)" fill="none" stroke-linejoin="miter" d="M -0.00214604 1.002311 L 236.096837 1.002311 " stroke="#000000" stroke-width="2" stroke-opacity="1" stroke-miterlimit="4"/><g fill="#1c2120" fill-opacity="0.4"><g transform="translate(308.724717, 205.301272)"><g><path d="M 13.957031 -8.367188 C 13.609375 -8.636719 13.148438 -8.558594 12.917969 -8.25 C 11.296875 -6.167969 8.636719 -4.433594 6.59375 -4.820312 C 6.632812 -5.089844 6.671875 -5.359375 6.671875 -5.628906 C 6.941406 -9.988281 5.589844 -10.875 4.78125 -11.027344 C 3.855469 -11.21875 2.890625 -10.527344 2.429688 -9.371094 C 2.238281 -9.445312 2.003906 -9.445312 1.8125 -9.292969 C 0.269531 -8.328125 -1.003906 -5.859375 -0.308594 -3.199219 C 0.152344 -1.621094 1.234375 -0.617188 2.660156 -0.617188 C 4.011719 -0.617188 5.4375 -1.621094 6.167969 -3.394531 C 8.867188 -2.816406 12.109375 -4.820312 14.074219 -7.324219 C 14.34375 -7.671875 14.265625 -8.136719 13.957031 -8.367188 Z M 2.699219 -2.082031 C 2.660156 -2.082031 2.660156 -2.082031 2.660156 -2.082031 C 1.695312 -2.121094 1.273438 -3.046875 1.15625 -3.585938 C 0.769531 -4.898438 1.078125 -6.710938 2.160156 -7.710938 C 2.238281 -6.402344 2.96875 -4.972656 4.820312 -3.972656 C 4.28125 -2.738281 3.355469 -2.082031 2.699219 -2.082031 Z M 5.207031 -5.707031 C 5.167969 -5.628906 5.167969 -5.550781 5.167969 -5.476562 C 3.703125 -6.4375 3.46875 -7.671875 3.738281 -8.636719 C 3.933594 -9.253906 4.320312 -9.5625 4.511719 -9.5625 C 4.703125 -9.523438 5.359375 -8.792969 5.207031 -5.707031 Z M 5.207031 -5.707031 "/></g></g></g><g fill="#1c2120" fill-opacity="0.4"><g transform="translate(321.060174, 205.301272)"><g><path d="M 7.828125 -10.179688 C 6.09375 -9.988281 4.703125 -9.792969 3.125 -9.640625 C 3.277344 -10.296875 3.433594 -10.914062 3.585938 -11.527344 C 3.625 -11.527344 3.625 -11.566406 3.664062 -11.605469 C 7.597656 -17.851562 10.914062 -25.449219 9.640625 -27.414062 C 9.371094 -27.761719 8.984375 -27.917969 8.597656 -27.839844 C 6.402344 -27.492188 4.085938 -19.28125 3.394531 -16.773438 C 2.816406 -14.574219 2.199219 -12.144531 1.582031 -9.523438 C 0.539062 -9.410156 -0.617188 -9.332031 -2.003906 -9.214844 C -2.390625 -9.175781 -2.699219 -8.828125 -2.660156 -8.40625 C -2.660156 -8.019531 -2.3125 -7.75 -1.929688 -7.75 C -1.929688 -7.75 -1.890625 -7.75 -1.890625 -7.75 C -0.695312 -7.828125 0.308594 -7.90625 1.195312 -7.980469 C -0.191406 -2.160156 -1.65625 4.355469 -2.929688 10.449219 C -3.855469 14.84375 -4.589844 18.585938 -5.011719 21.324219 C -5.785156 25.871094 -5.707031 26.414062 -4.972656 26.644531 C -4.898438 26.644531 -4.78125 26.683594 -4.703125 26.683594 C -4.046875 26.683594 -3.703125 25.71875 -3.355469 24.753906 C -3.199219 24.367188 -3.433594 23.945312 -3.816406 23.789062 C -3.855469 23.789062 -3.894531 23.753906 -3.933594 23.753906 C -3.199219 18.664062 -0.308594 4.628906 2.777344 -8.136719 C 4.589844 -8.289062 6.09375 -8.484375 8.019531 -8.714844 C 8.40625 -8.792969 8.714844 -9.136719 8.636719 -9.5625 C 8.597656 -9.949219 8.214844 -10.257812 7.828125 -10.179688 Z M 8.367188 -25.796875 C 8.214844 -24.40625 7.363281 -21.324219 4.933594 -16.734375 C 6.402344 -22.132812 7.671875 -24.753906 8.367188 -25.796875 Z M 8.367188 -25.796875 "/></g></g></g><g fill="#1c2120" fill-opacity="1"><g transform="translate(307.020619, 203.597174)"><g><path d="M 13.957031 -8.367188 C 13.609375 -8.636719 13.148438 -8.558594 12.917969 -8.25 C 11.296875 -6.167969 8.636719 -4.433594 6.59375 -4.820312 C 6.632812 -5.089844 6.671875 -5.359375 6.671875 -5.628906 C 6.941406 -9.988281 5.589844 -10.875 4.78125 -11.027344 C 3.855469 -11.21875 2.890625 -10.527344 2.429688 -9.371094 C 2.238281 -9.445312 2.003906 -9.445312 1.8125 -9.292969 C 0.269531 -8.328125 -1.003906 -5.859375 -0.308594 -3.199219 C 0.152344 -1.621094 1.234375 -0.617188 2.660156 -0.617188 C 4.011719 -0.617188 5.4375 -1.621094 6.167969 -3.394531 C 8.867188 -2.816406 12.109375 -4.820312 14.074219 -7.324219 C 14.34375 -7.671875 14.265625 -8.136719 13.957031 -8.367188 Z M 2.699219 -2.082031 C 2.660156 -2.082031 2.660156 -2.082031 2.660156 -2.082031 C 1.695312 -2.121094 1.273438 -3.046875 1.15625 -3.585938 C 0.769531 -4.898438 1.078125 -6.710938 2.160156 -7.710938 C 2.238281 -6.402344 2.96875 -4.972656 4.820312 -3.972656 C 4.28125 -2.738281 3.355469 -2.082031 2.699219 -2.082031 Z M 5.207031 -5.707031 C 5.167969 -5.628906 5.167969 -5.550781 5.167969 -5.476562 C 3.703125 -6.4375 3.46875 -7.671875 3.738281 -8.636719 C 3.933594 -9.253906 4.320312 -9.5625 4.511719 -9.5625 C 4.703125 -9.523438 5.359375 -8.792969 5.207031 -5.707031 Z M 5.207031 -5.707031 "/></g></g></g><g fill="#1c2120" fill-opacity="1"><g transform="translate(319.356076, 203.597174)"><g><path d="M 7.828125 -10.179688 C 6.09375 -9.988281 4.703125 -9.792969 3.125 -9.640625 C 3.277344 -10.296875 3.433594 -10.914062 3.585938 -11.527344 C 3.625 -11.527344 3.625 -11.566406 3.664062 -11.605469 C 7.597656 -17.851562 10.914062 -25.449219 9.640625 -27.414062 C 9.371094 -27.761719 8.984375 -27.917969 8.597656 -27.839844 C 6.402344 -27.492188 4.085938 -19.28125 3.394531 -16.773438 C 2.816406 -14.574219 2.199219 -12.144531 1.582031 -9.523438 C 0.539062 -9.410156 -0.617188 -9.332031 -2.003906 -9.214844 C -2.390625 -9.175781 -2.699219 -8.828125 -2.660156 -8.40625 C -2.660156 -8.019531 -2.3125 -7.75 -1.929688 -7.75 C -1.929688 -7.75 -1.890625 -7.75 -1.890625 -7.75 C -0.695312 -7.828125 0.308594 -7.90625 1.195312 -7.980469 C -0.191406 -2.160156 -1.65625 4.355469 -2.929688 10.449219 C -3.855469 14.84375 -4.589844 18.585938 -5.011719 21.324219 C -5.785156 25.871094 -5.707031 26.414062 -4.972656 26.644531 C -4.898438 26.644531 -4.78125 26.683594 -4.703125 26.683594 C -4.046875 26.683594 -3.703125 25.71875 -3.355469 24.753906 C -3.199219 24.367188 -3.433594 23.945312 -3.816406 23.789062 C -3.855469 23.789062 -3.894531 23.753906 -3.933594 23.753906 C -3.199219 18.664062 -0.308594 4.628906 2.777344 -8.136719 C 4.589844 -8.289062 6.09375 -8.484375 8.019531 -8.714844 C 8.40625 -8.792969 8.714844 -9.136719 8.636719 -9.5625 C 8.597656 -9.949219 8.214844 -10.257812 7.828125 -10.179688 Z M 8.367188 -25.796875 C 8.214844 -24.40625 7.363281 -21.324219 4.933594 -16.734375 C 6.402344 -22.132812 7.671875 -24.753906 8.367188 -25.796875 Z M 8.367188 -25.796875 "/></g></g></g></svg>